<svg xmlns="http://www.w3.org/2000/svg" xmlns:svg="http://www.w3.org/2000/svg" id="svg3536" width="240" height="240" x="0" y="0" version="1.1" viewBox="0 0 240 240" xml:space="preserve"><metadata id="metadata3564"/><style id="style3538" type="text/css">.st2{fill:#9c3}.st10{fill:#f4d30b}.st11{fill:#0084ab}</style><g id="g3550" transform="translate(8,-26)"><g id="g3552"><path style="fill:#f4d30b" id="path3554" d="M 145.8,44.8 C 132.6,32 115.2,25 96.8,25 57.8,25 26,56.8 26,95.8 c 0,12.3 3.2,24.5 9.4,35.2 l 2.1,3.6 8.1,-6.3 -1.5,-2.7 c -5.1,-9 -7.8,-19.3 -7.8,-29.7 0,-33.3 27.1,-60.4 60.4,-60.4 15.5,0 30.2,5.9 41.5,16.6 l 2.3,2.1 8.4,-6.6 -3.1,-2.8 z" class="st10"/><path style="fill:#0084ab" id="path3556" d="m 158.3,60.7 -2.1,-3.6 -8.4,6.6 1.5,2.7 c 5.1,9 7.7,19.2 7.7,29.6 0,33.3 -27.1,60.4 -60.4,60.4 -15.5,0 -30.2,-5.9 -41.4,-16.5 l -2.3,-2.1 -8.1,6.4 3,2.9 c 13.3,12.7 30.7,19.7 49,19.7 39,0 70.8,-31.8 70.8,-70.8 0,-12.5 -3.2,-24.7 -9.3,-35.3 z" class="st11"/></g><polygon style="fill:#9c3" id="polygon3558" points="81.8 100 81.8 213 195.8 213 171.1 183 112.8 183 112.8 75.3" class="st2"/></g></svg>