<svg xmlns="http://www.w3.org/2000/svg" xmlns:svg="http://www.w3.org/2000/svg" id="svg3404" width="576" height="240" x="0" y="0" version="1.1" viewBox="0 0 576 240" xml:space="preserve"><metadata id="metadata3432"/><style id="style3406" type="text/css">.st10{fill:#f4d30b}.st11{fill:#0084ab}</style><g id="g3420" transform="matrix(1.1521135,0,0,1.1710336,-21.34991,-22.430157)"><path id="path3422" d="M 145.8,44.8 C 132.6,32 115.2,25 96.8,25 57.8,25 26,56.8 26,95.8 c 0,12.3 3.2,24.5 9.4,35.2 l 2.1,3.6 8.1,-6.3 -1.5,-2.7 c -5.1,-9 -7.8,-19.3 -7.8,-29.7 0,-33.3 27.1,-60.4 60.4,-60.4 15.5,0 30.2,5.9 41.5,16.6 l 2.3,2.1 8.4,-6.6 -3.1,-2.8 z" class="st10" style="fill:#f4d30b"/><path id="path3424" d="m 158.3,60.7 -2.1,-3.6 -8.4,6.6 1.5,2.7 c 5.1,9 7.7,19.2 7.7,29.6 0,33.3 -27.1,60.4 -60.4,60.4 -15.5,0 -30.2,-5.9 -41.4,-16.5 l -2.3,-2.1 -8.1,6.4 3,2.9 c 13.3,12.7 30.7,19.7 49,19.7 39,0 70.8,-31.8 70.8,-70.8 0,-12.5 -3.2,-24.7 -9.3,-35.3 z" class="st11" style="fill:#0084ab"/></g><path id="polygon3426" d="m 175.77671,191.86899 -67.16822,0 0,-126.120317 -35.715516,28.92453 0,132.326797 131.340936,0 z" style="fill:#9c3"/><g transform="scale(0.86012124,1.1626268)" style="font-size:190.25213623px;font-style:normal;font-variant:normal;font-weight:700;font-stretch:normal;text-align:start;line-height:125%;letter-spacing:0;word-spacing:0;writing-mode:lr-tb;text-anchor:start;fill:#9c3;fill-opacity:1;stroke:none;font-family:Sans;-inkscape-font-specification:Sans Bold" id="text3002"><path id="path3775" d="m 348.20672,165.0306 -52.58444,0 -10.46853,30.21693 -35.95097,0 51.3718,-138.694552 42.63951,0 51.3718,138.694552 -35.95097,0 -10.4282,-30.21693 m -45.30973,-20.78328 37.99469,0 -18.9509,-55.18055 -19.04379,55.18055"/><path id="path3777" d="m 383.34541,56.552978 35.95096,0 36.78704,102.372002 36.69414,-102.372002 35.95096,0 -51.37179,138.694552 -42.63952,0 -51.37179,-138.694552"/><path id="path3779" d="m 616.45612,165.0306 -52.55306,0 -10.46406,30.21693 -35.95097,0 51.37179,-138.694552 42.63952,0 51.37179,138.694552 -35.95096,0 -10.46405,-30.21693 m -45.27388,-20.78328 37.99469,0 -18.9509,-55.18055 -19.04379,55.18055"/></g></svg>